<mxfile host="65bd71144e">
    <diagram name="TtalKkac 완전 시스템 아키텍처 - AWS 배포" id="ttalkkac-complete-aws">
        <mxGraphModel dx="4185" dy="1098" grid="1" gridSize="10" guides="1" tooltips="1" connect="1" arrows="1" fold="1" page="1" pageScale="1" pageWidth="2400" pageHeight="1600" math="0" shadow="0">
            <root>
                <mxCell id="0"/>
                <mxCell id="1" parent="0"/>
                <mxCell id="title" value="TtalKkac AI 프로젝트 관리 시스템 - AWS 배포 아키텍처" style="text;html=1;strokeColor=none;fillColor=none;align=center;verticalAlign=middle;whiteSpace=wrap;rounded=0;fontSize=28;fontStyle=3;fontColor=#1976D2;" parent="1" vertex="1">
                    <mxGeometry x="600" y="20" width="1200" height="50" as="geometry"/>
                </mxCell>
                <mxCell id="subtitle" value="음성 입력 → AI 처리 (2단계) → 스마트 배정 → 외부 연동 (Slack/Notion/JIRA) → AWS 고가용성 배포" style="text;html=1;strokeColor=none;fillColor=none;align=center;verticalAlign=middle;whiteSpace=wrap;rounded=0;fontSize=16;fontColor=#666666;" parent="1" vertex="1">
                    <mxGeometry x="600" y="70" width="1200" height="30" as="geometry"/>
                </mxCell>
                <mxCell id="aws-main-cloud" value="" style="rounded=1;whiteSpace=wrap;html=1;fillColor=#fff2cc;strokeColor=#d6b656;strokeWidth=4;" parent="1" vertex="1">
                    <mxGeometry x="-20" y="120" width="2500" height="1440" as="geometry"/>
                </mxCell>
                <mxCell id="aws-main-label" value="AWS Cloud" style="text;html=1;strokeColor=none;fillColor=none;align=left;verticalAlign=top;whiteSpace=wrap;rounded=0;fontSize=24;fontStyle=1;fontColor=#d6b656;" parent="1" vertex="1">
                    <mxGeometry x="200" y="140" width="400" height="40" as="geometry"/>
                </mxCell>
                <mxCell id="global-layer" value="" style="rounded=1;whiteSpace=wrap;html=1;fillColor=#e3f2fd;strokeColor=#1976d2;strokeWidth=3;" parent="1" vertex="1">
                    <mxGeometry x="100" y="200" width="2200" height="120" as="geometry"/>
                </mxCell>
                <mxCell id="global-title" value="🌐 글로벌 서비스 레이어" style="text;html=1;strokeColor=none;fillColor=none;align=center;verticalAlign=middle;whiteSpace=wrap;rounded=0;fontSize=18;fontStyle=1;fontColor=#1976d2;" parent="1" vertex="1">
                    <mxGeometry x="1100" y="210" width="200" height="30" as="geometry"/>
                </mxCell>
                <mxCell id="route53" value="Route 53 DNS&#10;도메인 관리&#10;Health Check" style="rounded=1;whiteSpace=wrap;html=1;fillColor=#1976d2;strokeColor=#0d47a1;fontColor=white;fontSize=12;" parent="1" vertex="1">
                    <mxGeometry x="200" y="250" width="140" height="60" as="geometry"/>
                </mxCell>
                <mxCell id="cloudfront" value="CloudFront CDN&#10;글로벌 엣지&#10;캐싱 &amp; 압축" style="rounded=1;whiteSpace=wrap;html=1;fillColor=#1976d2;strokeColor=#0d47a1;fontColor=white;fontSize=12;" parent="1" vertex="1">
                    <mxGeometry x="400" y="250" width="140" height="60" as="geometry"/>
                </mxCell>
                <mxCell id="waf" value="AWS WAF&#10;DDoS Protection&#10;보안 필터링" style="rounded=1;whiteSpace=wrap;html=1;fillColor=#1976d2;strokeColor=#0d47a1;fontColor=white;fontSize=12;" parent="1" vertex="1">
                    <mxGeometry x="600" y="250" width="140" height="60" as="geometry"/>
                </mxCell>
                <mxCell id="certificate" value="ACM Certificate&#10;SSL/TLS 인증서&#10;자동 갱신" style="rounded=1;whiteSpace=wrap;html=1;fillColor=#1976d2;strokeColor=#0d47a1;fontColor=white;fontSize=12;" parent="1" vertex="1">
                    <mxGeometry x="800" y="250" width="140" height="60" as="geometry"/>
                </mxCell>
                <mxCell id="network-layer" value="" style="rounded=1;whiteSpace=wrap;html=1;fillColor=#f3e5f5;strokeColor=#7b1fa2;strokeWidth=3;" parent="1" vertex="1">
                    <mxGeometry x="100" y="350" width="2200" height="200" as="geometry"/>
                </mxCell>
                <mxCell id="network-title" value="🔗 네트워크 &amp; 로드 밸런싱 레이어" style="text;html=1;strokeColor=none;fillColor=none;align=center;verticalAlign=middle;whiteSpace=wrap;rounded=0;fontSize=18;fontStyle=1;fontColor=#7b1fa2;" parent="1" vertex="1">
                    <mxGeometry x="1050" y="360" width="300" height="30" as="geometry"/>
                </mxCell>
                <mxCell id="igw" value="Internet Gateway&#10;인터넷 연결&#10;공인 IP 관리" style="rounded=1;whiteSpace=wrap;html=1;fillColor=#7b1fa2;strokeColor=#4a148c;fontColor=white;fontSize=12;" parent="1" vertex="1">
                    <mxGeometry x="200" y="420" width="140" height="80" as="geometry"/>
                </mxCell>
                <mxCell id="alb" value="Application Load Balancer&#10;L7 로드 밸런싱&#10;SSL/TLS 종료&#10;헬스 체크" style="rounded=1;whiteSpace=wrap;html=1;fillColor=#7b1fa2;strokeColor=#4a148c;fontColor=white;fontSize=12;" parent="1" vertex="1">
                    <mxGeometry x="400" y="420" width="180" height="80" as="geometry"/>
                </mxCell>
                <mxCell id="nat-gateway" value="NAT Gateway&#10;아웃바운드 연결&#10;Multi-AZ 구성" style="rounded=1;whiteSpace=wrap;html=1;fillColor=#7b1fa2;strokeColor=#4a148c;fontColor=white;fontSize=12;" parent="1" vertex="1">
                    <mxGeometry x="650" y="420" width="140" height="80" as="geometry"/>
                </mxCell>
                <mxCell id="vpc-endpoints" value="VPC Endpoints&#10;S3, ECR 연결&#10;프라이빗 통신" style="rounded=1;whiteSpace=wrap;html=1;fillColor=#7b1fa2;strokeColor=#4a148c;fontColor=white;fontSize=12;" parent="1" vertex="1">
                    <mxGeometry x="850" y="420" width="140" height="80" as="geometry"/>
                </mxCell>
                <mxCell id="vpc-container" value="" style="rounded=1;whiteSpace=wrap;html=1;fillColor=#f5f5f5;strokeColor=#424242;strokeWidth=3;strokeDashArray=5 5;" parent="1" vertex="1">
                    <mxGeometry x="150" y="580" width="2100" height="700" as="geometry"/>
                </mxCell>
                <mxCell id="vpc-label" value="VPC (10.0.0.0/16) - Multi-AZ 구성" style="text;html=1;strokeColor=none;fillColor=none;align=left;verticalAlign=top;whiteSpace=wrap;rounded=0;fontSize=16;fontStyle=1;fontColor=#424242;" parent="1" vertex="1">
                    <mxGeometry x="220" y="590" width="300" height="30" as="geometry"/>
                </mxCell>
                <mxCell id="az-2a-container" value="" style="rounded=1;whiteSpace=wrap;html=1;fillColor=#e0f2fe;strokeColor=#0369a1;strokeWidth=2;" parent="1" vertex="1">
                    <mxGeometry x="200" y="630" width="950" height="620" as="geometry"/>
                </mxCell>
                <mxCell id="az-2c-container" value="" style="rounded=1;whiteSpace=wrap;html=1;fillColor=#ecfdf5;strokeColor=#059669;strokeWidth=2;" parent="1" vertex="1">
                    <mxGeometry x="1200" y="630" width="950" height="620" as="geometry"/>
                </mxCell>
                <mxCell id="public-subnet-2a" value="Public Subnet 2a&#10;10.0.1.0/24&#10;웹 서비스" style="rounded=1;whiteSpace=wrap;html=1;fillColor=#f97316;strokeColor=#ea580c;fontColor=white;fontSize=11;" parent="1" vertex="1">
                    <mxGeometry x="285" y="700" width="180" height="65" as="geometry"/>
                </mxCell>
                <mxCell id="private-subnet-2a" value="Private Subnet 2a&#10;10.0.3.0/24&#10;애플리케이션" style="rounded=1;whiteSpace=wrap;html=1;fillColor=#f97316;strokeColor=#ea580c;fontColor=white;fontSize=11;" parent="1" vertex="1">
                    <mxGeometry x="505" y="700" width="180" height="65" as="geometry"/>
                </mxCell>
                <mxCell id="db-subnet-2a" value="DB Subnet 2a&#10;10.0.5.0/24&#10;데이터베이스" style="rounded=1;whiteSpace=wrap;html=1;fillColor=#f97316;strokeColor=#ea580c;fontColor=white;fontSize=11;" parent="1" vertex="1">
                    <mxGeometry x="725" y="700" width="180" height="65" as="geometry"/>
                </mxCell>
                <mxCell id="public-subnet-2c" value="Public Subnet 2c&#10;10.0.2.0/24&#10;웹 서비스" style="rounded=1;whiteSpace=wrap;html=1;fillColor=#f97316;strokeColor=#ea580c;fontColor=white;fontSize=11;" parent="1" vertex="1">
                    <mxGeometry x="1380" y="700" width="180" height="50" as="geometry"/>
                </mxCell>
                <mxCell id="private-subnet-2c" value="Private Subnet 2c&#10;10.0.4.0/24&#10;애플리케이션" style="rounded=1;whiteSpace=wrap;html=1;fillColor=#f97316;strokeColor=#ea580c;fontColor=white;fontSize=11;" parent="1" vertex="1">
                    <mxGeometry x="1600" y="700" width="180" height="50" as="geometry"/>
                </mxCell>
                <mxCell id="db-subnet-2c" value="DB Subnet 2c&#10;10.0.6.0/24&#10;데이터베이스" style="rounded=1;whiteSpace=wrap;html=1;fillColor=#f97316;strokeColor=#ea580c;fontColor=white;fontSize=11;" parent="1" vertex="1">
                    <mxGeometry x="1820" y="700" width="180" height="50" as="geometry"/>
                </mxCell>
                <mxCell id="ecs-cluster-2a" value="ECS Fargate Cluster 2a" style="rounded=1;whiteSpace=wrap;html=1;fillColor=#ddd6fe;strokeColor=#7c3aed;strokeWidth=2;fontSize=12;fontStyle=1;" parent="1" vertex="1">
                    <mxGeometry x="285" y="795" width="620" height="40" as="geometry"/>
                </mxCell>
                <mxCell id="web-dashboard-2a" value="웹 대시보드&#10;React + TypeScript&#10;Port: 3001&#10;• 프로젝트 관리&#10;• 진행 상황" style="rounded=1;whiteSpace=wrap;html=1;fillColor=#388e3c;strokeColor=#2e7d32;fontColor=white;fontSize=10;" parent="1" vertex="1">
                    <mxGeometry x="305" y="880" width="130" height="80" as="geometry"/>
                </mxCell>
                <mxCell id="express-api-2a" value="Express API&#10;Node.js + TypeScript&#10;Port: 3500&#10;• API 게이트웨이&#10;• OAuth 인증" style="rounded=1;whiteSpace=wrap;html=1;fillColor=#388e3c;strokeColor=#2e7d32;fontColor=white;fontSize=10;" parent="1" vertex="1">
                    <mxGeometry x="465" y="880" width="130" height="80" as="geometry"/>
                </mxCell>
                <mxCell id="slack-bot-2a" value="Slack Bot&#10;@slack/bolt&#10;• /tk 명령어&#10;• 음성 파일 수신&#10;• 실시간 알림" style="rounded=1;whiteSpace=wrap;html=1;fillColor=#388e3c;strokeColor=#2e7d32;fontColor=white;fontSize=10;" parent="1" vertex="1">
                    <mxGeometry x="625" y="880" width="130" height="80" as="geometry"/>
                </mxCell>
                <mxCell id="tenant-service-2a" value="멀티테넌트&#10;tenant.ts&#10;• 테넌트 격리&#10;• 리소스 분리&#10;• 보안 관리" style="rounded=1;whiteSpace=wrap;html=1;fillColor=#388e3c;strokeColor=#2e7d32;fontColor=white;fontSize=10;" parent="1" vertex="1">
                    <mxGeometry x="785" y="880" width="130" height="80" as="geometry"/>
                </mxCell>
                <mxCell id="ecs-cluster-2c" value="ECS Fargate Cluster 2c" style="rounded=1;whiteSpace=wrap;html=1;fillColor=#ddd6fe;strokeColor=#7c3aed;strokeWidth=2;fontSize=12;fontStyle=1;" parent="1" vertex="1">
                    <mxGeometry x="1380" y="795" width="620" height="40" as="geometry"/>
                </mxCell>
                <mxCell id="web-dashboard-2c" value="웹 대시보드&#10;React + TypeScript&#10;Port: 3001&#10;• 프로젝트 관리&#10;• 진행 상황" style="rounded=1;whiteSpace=wrap;html=1;fillColor=#388e3c;strokeColor=#2e7d32;fontColor=white;fontSize=10;" parent="1" vertex="1">
                    <mxGeometry x="1400" y="855" width="130" height="80" as="geometry"/>
                </mxCell>
                <mxCell id="express-api-2c" value="Express API&#10;Node.js + TypeScript&#10;Port: 3500&#10;• API 게이트웨이&#10;• OAuth 인증" style="rounded=1;whiteSpace=wrap;html=1;fillColor=#388e3c;strokeColor=#2e7d32;fontColor=white;fontSize=10;" parent="1" vertex="1">
                    <mxGeometry x="1550" y="855" width="130" height="80" as="geometry"/>
                </mxCell>
                <mxCell id="slack-bot-2c" value="Slack Bot&#10;@slack/bolt&#10;• /tk 명령어&#10;• 음성 파일 수신&#10;• 실시간 알림" style="rounded=1;whiteSpace=wrap;html=1;fillColor=#388e3c;strokeColor=#2e7d32;fontColor=white;fontSize=10;" parent="1" vertex="1">
                    <mxGeometry x="1700" y="855" width="130" height="80" as="geometry"/>
                </mxCell>
                <mxCell id="tenant-service-2c" value="멀티테넌트&#10;tenant.ts&#10;• 테넌트 격리&#10;• 리소스 분리&#10;• 보안 관리" style="rounded=1;whiteSpace=wrap;html=1;fillColor=#388e3c;strokeColor=#2e7d32;fontColor=white;fontSize=10;" parent="1" vertex="1">
                    <mxGeometry x="1850" y="850" width="130" height="85" as="geometry"/>
                </mxCell>
                <mxCell id="notion-service-2a" value="Notion 서비스&#10;notion-service.ts&#10;• 페이지 생성&#10;• 블록 구조화&#10;• OAuth 관리" style="rounded=1;whiteSpace=wrap;html=1;fillColor=#388e3c;strokeColor=#2e7d32;fontColor=white;fontSize=10;" parent="1" vertex="1">
                    <mxGeometry x="305" y="980" width="120" height="70" as="geometry"/>
                </mxCell>
                <mxCell id="jira-service-2a" value="JIRA 서비스&#10;jira-service.ts&#10;• 이슈 생성&#10;• Epic/Task 매핑&#10;• 토큰 관리" style="rounded=1;whiteSpace=wrap;html=1;fillColor=#388e3c;strokeColor=#2e7d32;fontColor=white;fontSize=10;" parent="1" vertex="1">
                    <mxGeometry x="465" y="980" width="130" height="70" as="geometry"/>
                </mxCell>
                <mxCell id="task-assigner-2a" value="스마트 배정&#10;smart-task-assigner.ts&#10;• 스킬 매칭 (40%)&#10;• 워크로드 (30%)&#10;• 경험/우선순위" style="rounded=1;whiteSpace=wrap;html=1;fillColor=#388e3c;strokeColor=#2e7d32;fontColor=white;fontSize=10;" parent="1" vertex="1">
                    <mxGeometry x="625" y="980" width="130" height="70" as="geometry"/>
                </mxCell>
                <mxCell id="notion-service-2c" value="Notion 서비스&#10;notion-service.ts&#10;• 페이지 생성&#10;• 블록 구조화&#10;• OAuth 관리" style="rounded=1;whiteSpace=wrap;html=1;fillColor=#388e3c;strokeColor=#2e7d32;fontColor=white;fontSize=10;" parent="1" vertex="1">
                    <mxGeometry x="1400" y="955" width="120" height="70" as="geometry"/>
                </mxCell>
                <mxCell id="jira-service-2c" value="JIRA 서비스&#10;jira-service.ts&#10;• 이슈 생성&#10;• Epic/Task 매핑&#10;• 토큰 관리" style="rounded=1;whiteSpace=wrap;html=1;fillColor=#388e3c;strokeColor=#2e7d32;fontColor=white;fontSize=10;" parent="1" vertex="1">
                    <mxGeometry x="1540" y="955" width="120" height="70" as="geometry"/>
                </mxCell>
                <mxCell id="task-assigner-2c" value="스마트 배정&#10;smart-task-assigner.ts&#10;• 스킬 매칭 (40%)&#10;• 워크로드 (30%)&#10;• 경험/우선순위" style="rounded=1;whiteSpace=wrap;html=1;fillColor=#388e3c;strokeColor=#2e7d32;fontColor=white;fontSize=10;" parent="1" vertex="1">
                    <mxGeometry x="1680" y="955" width="130" height="70" as="geometry"/>
                </mxCell>
                <mxCell id="rds-primary" value="RDS PostgreSQL&#10;Primary&#10;db.t3.large&#10;Multi-AZ&#10;• 멀티테넌트 지원&#10;• 트랜잭션 관리" style="rounded=1;whiteSpace=wrap;html=1;fillColor=#616161;strokeColor=#424242;fontColor=white;fontSize=10;" parent="1" vertex="1">
                    <mxGeometry x="305" y="1080" width="130" height="90" as="geometry"/>
                </mxCell>
                <mxCell id="rds-standby" value="RDS PostgreSQL&#10;Standby&#10;Synchronous&#10;Replication&#10;• 자동 장애조치&#10;• 읽기 전용" style="rounded=1;whiteSpace=wrap;html=1;fillColor=#616161;strokeColor=#424242;fontColor=white;fontSize=10;" parent="1" vertex="1">
                    <mxGeometry x="1400" y="1055" width="130" height="90" as="geometry"/>
                </mxCell>
                <mxCell id="redis-2a" value="ElastiCache Redis&#10;Cluster Mode&#10;• 세션 관리&#10;• 임시 데이터&#10;• 작업 큐" style="rounded=1;whiteSpace=wrap;html=1;fillColor=#616161;strokeColor=#424242;fontColor=white;fontSize=10;" parent="1" vertex="1">
                    <mxGeometry x="465" y="1080" width="120" height="85" as="geometry"/>
                </mxCell>
                <mxCell id="redis-2c" value="ElastiCache Redis&#10;Cluster Mode&#10;• 세션 관리&#10;• 임시 데이터&#10;• 작업 큐" style="rounded=1;whiteSpace=wrap;html=1;fillColor=#616161;strokeColor=#424242;fontColor=white;fontSize=10;" parent="1" vertex="1">
                    <mxGeometry x="1550" y="1055" width="120" height="95" as="geometry"/>
                </mxCell>
                <mxCell id="s3-bucket" value="S3 Bucket&#10;파일 저장소&#10;• 음성 파일&#10;• 정적 자산&#10;• 백업 데이터&#10;• Versioning" style="rounded=1;whiteSpace=wrap;html=1;fillColor=#616161;strokeColor=#424242;fontColor=white;fontSize=10;" parent="1" vertex="1">
                    <mxGeometry x="625" y="1080" width="120" height="90" as="geometry"/>
                </mxCell>
                <mxCell id="efs" value="EFS&#10;공유 파일 시스템&#10;• Multi-AZ&#10;• 동적 확장&#10;• NFSv4" style="rounded=1;whiteSpace=wrap;html=1;fillColor=#616161;strokeColor=#424242;fontColor=white;fontSize=10;" parent="1" vertex="1">
                    <mxGeometry x="785" y="1080" width="120" height="85" as="geometry"/>
                </mxCell>
                <mxCell id="cloudwatch" value="CloudWatch&#10;모니터링&#10;• 메트릭 수집&#10;• 로그 관리&#10;• 알람 설정&#10;• 대시보드" style="rounded=1;whiteSpace=wrap;html=1;fillColor=#616161;strokeColor=#424242;fontColor=white;fontSize=10;" parent="1" vertex="1">
                    <mxGeometry x="1700" y="1055" width="120" height="90" as="geometry"/>
                </mxCell>
                <mxCell id="security-groups" value="Security Groups&#10;방화벽 규칙&#10;• ALB-SG (80,443)&#10;• ECS-SG (3001,3500)&#10;• RDS-SG (5432)&#10;• Redis-SG (6379)" style="rounded=1;whiteSpace=wrap;html=1;fillColor=#616161;strokeColor=#424242;fontColor=white;fontSize=10;" parent="1" vertex="1">
                    <mxGeometry x="1850" y="1055" width="130" height="90" as="geometry"/>
                </mxCell>
                <mxCell id="auto-scaling" value="Auto Scaling&#10;자동 확장&#10;• CPU: 70% 기준&#10;• Min: 2, Max: 20&#10;• 스케일링 정책&#10;• 비용 최적화" style="rounded=1;whiteSpace=wrap;html=1;fillColor=#616161;strokeColor=#424242;fontColor=white;fontSize=10;" parent="1" vertex="1">
                    <mxGeometry x="935" y="1080" width="120" height="90" as="geometry"/>
                </mxCell>
                <mxCell id="runpod-cloud" value="" style="rounded=1;whiteSpace=wrap;html=1;fillColor=#ffebee;strokeColor=#d32f2f;strokeWidth=3;" parent="1" vertex="1">
                    <mxGeometry x="250" y="1320" width="800" height="180" as="geometry"/>
                </mxCell>
                <mxCell id="2" style="edgeStyle=none;html=1;exitX=1;exitY=0.5;exitDx=0;exitDy=0;" edge="1" parent="1" source="runpod-title" target="runpod-cloud">
                    <mxGeometry relative="1" as="geometry"/>
                </mxCell>
                <mxCell id="runpod-title" value="🚀 RunPod GPU Cloud - AI 처리 엔진" style="text;html=1;strokeColor=none;fillColor=none;align=center;verticalAlign=middle;whiteSpace=wrap;rounded=0;fontSize=18;fontStyle=1;fontColor=#d32f2f;" parent="1" vertex="1">
                    <mxGeometry x="485" y="1330" width="330" height="30" as="geometry"/>
                </mxCell>
                <mxCell id="runpod-fastapi" value="FastAPI AI Server&#10;Python + FastAPI&#10;Port: 8000&#10;GPU 최적화" style="rounded=1;whiteSpace=wrap;html=1;fillColor=#d32f2f;strokeColor=#b71c1c;fontColor=white;fontSize=11;" parent="1" vertex="1">
                    <mxGeometry x="280" y="1370" width="140" height="70" as="geometry"/>
                </mxCell>
                <mxCell id="runpod-whisperx" value="WhisperX STT&#10;large-v3 모델&#10;• 음성 전사&#10;• 화자 구분&#10;• 다국어 지원" style="rounded=1;whiteSpace=wrap;html=1;fillColor=#d32f2f;strokeColor=#b71c1c;fontColor=white;fontSize=11;" parent="1" vertex="1">
                    <mxGeometry x="440" y="1370" width="140" height="70" as="geometry"/>
                </mxCell>
                <mxCell id="runpod-kcbert" value="BERT 필터링&lt;br&gt;klue/BERT&lt;br&gt;• 핵심부분 추출&lt;br&gt;• 토큰 최적화&lt;br&gt;• 성능 향상" style="rounded=1;whiteSpace=wrap;html=1;fillColor=#d32f2f;strokeColor=#b71c1c;fontColor=white;fontSize=11;" parent="1" vertex="1">
                    <mxGeometry x="600" y="1370" width="140" height="70" as="geometry"/>
                </mxCell>
                <mxCell id="runpod-qwen3" value="Qwen3-32B-AWQ&#10;LLM 모델&#10;• Stage 1: 기획안&#10;• Stage 2: PRD&#10;• 업무 분해" style="rounded=1;whiteSpace=wrap;html=1;fillColor=#d32f2f;strokeColor=#b71c1c;fontColor=white;fontSize=11;" parent="1" vertex="1">
                    <mxGeometry x="760" y="1370" width="140" height="70" as="geometry"/>
                </mxCell>
                <mxCell id="runpod-gpu" value="NVIDIA A100 GPU&lt;br&gt;CUDA 지원" style="rounded=1;whiteSpace=wrap;html=1;fillColor=#d32f2f;strokeColor=#b71c1c;fontColor=white;fontSize=11;" parent="1" vertex="1">
                    <mxGeometry x="920" y="1370" width="120" height="70" as="geometry"/>
                </mxCell>
                <mxCell id="external-services" value="" style="rounded=1;whiteSpace=wrap;html=1;fillColor=#e8f5e8;strokeColor=#388e3c;strokeWidth=3;" parent="1" vertex="1">
                    <mxGeometry x="1100" y="1320" width="630" height="180" as="geometry"/>
                </mxCell>
                <mxCell id="external-title" value="🔗 외부 서비스 연동" style="text;html=1;strokeColor=none;fillColor=none;align=center;verticalAlign=middle;whiteSpace=wrap;rounded=0;fontSize=18;fontStyle=1;fontColor=#388e3c;" parent="1" vertex="1">
                    <mxGeometry x="1300" y="1330" width="200" height="30" as="geometry"/>
                </mxCell>
                <mxCell id="slack-api" value="Slack API&#10;slack.com&#10;• 봇 토큰&#10;• 파일 업로드&#10;• 실시간 이벤트&#10;• OAuth 2.0" style="rounded=1;whiteSpace=wrap;html=1;fillColor=#388e3c;strokeColor=#2e7d32;fontColor=white;fontSize=10;" parent="1" vertex="1">
                    <mxGeometry x="1120" y="1370" width="120" height="80" as="geometry"/>
                </mxCell>
                <mxCell id="notion-api" value="Notion API&#10;api.notion.com&#10;• OAuth 2.0&#10;• 페이지 생성&#10;• 워크스페이스 연동&#10;• 블록 구조화" style="rounded=1;whiteSpace=wrap;html=1;fillColor=#388e3c;strokeColor=#2e7d32;fontColor=white;fontSize=10;" parent="1" vertex="1">
                    <mxGeometry x="1270" y="1370" width="120" height="80" as="geometry"/>
                </mxCell>
                <mxCell id="jira-api" value="JIRA API&#10;atlassian.com&#10;• OAuth 2.0 (3LO)&#10;• 이슈 생성&#10;• 프로젝트 관리&#10;• Epic/Task 매핑" style="rounded=1;whiteSpace=wrap;html=1;fillColor=#388e3c;strokeColor=#2e7d32;fontColor=white;fontSize=10;" parent="1" vertex="1">
                    <mxGeometry x="1410" y="1370" width="120" height="80" as="geometry"/>
                </mxCell>
                <mxCell id="oauth-manager" value="OAuth 관리&#10;• 토큰 암호화&#10;• 자동 갱신&#10;• 스코프 관리&#10;• 리프레시 토큰&#10;• 보안 저장" style="rounded=1;whiteSpace=wrap;html=1;fillColor=#388e3c;strokeColor=#2e7d32;fontColor=white;fontSize=10;" parent="1" vertex="1">
                    <mxGeometry x="1550" y="1370" width="120" height="80" as="geometry"/>
                </mxCell>
                <mxCell id="flow-global-network" value="DNS &amp; CDN" style="edgeStyle=orthogonalEdgeStyle;rounded=0;orthogonalLoop=1;jettySize=auto;html=1;strokeWidth=3;strokeColor=#1976d2;fontColor=#1976d2;entryX=0;entryY=0.5;entryDx=0;entryDy=0;" parent="1" source="route53" target="alb" edge="1">
                    <mxGeometry x="0.1664" relative="1" as="geometry">
                        <Array as="points">
                            <mxPoint x="370" y="280"/>
                            <mxPoint x="370" y="460"/>
                        </Array>
                        <mxPoint as="offset"/>
                    </mxGeometry>
                </mxCell>
                <mxCell id="flow-load-balance" value="로드 밸런싱" style="edgeStyle=orthogonalEdgeStyle;rounded=0;orthogonalLoop=1;jettySize=auto;html=1;strokeWidth=3;strokeColor=#7b1fa2;fontColor=#7b1fa2;" parent="1" source="alb" target="ecs-cluster-2a" edge="1">
                    <mxGeometry relative="1" as="geometry">
                        <Array as="points">
                            <mxPoint x="490" y="600"/>
                            <mxPoint x="650" y="600"/>
                        </Array>
                    </mxGeometry>
                </mxCell>
                <mxCell id="flow-load-balance-2c" value="" style="edgeStyle=orthogonalEdgeStyle;rounded=0;orthogonalLoop=1;jettySize=auto;html=1;strokeWidth=3;strokeColor=#7b1fa2;" parent="1" source="alb" target="ecs-cluster-2c" edge="1">
                    <mxGeometry relative="1" as="geometry">
                        <Array as="points">
                            <mxPoint x="490" y="530"/>
                            <mxPoint x="1170" y="530"/>
                            <mxPoint x="1170" y="770"/>
                            <mxPoint x="1690" y="770"/>
                        </Array>
                    </mxGeometry>
                </mxCell>
                <mxCell id="flow-ai-processing" value="AI 처리" style="edgeStyle=orthogonalEdgeStyle;rounded=0;orthogonalLoop=1;jettySize=auto;html=1;strokeWidth=3;strokeColor=#d32f2f;fontColor=#d32f2f;" parent="1" source="express-api-2a" target="runpod-fastapi" edge="1">
                    <mxGeometry relative="1" as="geometry">
                        <Array as="points">
                            <mxPoint x="530" y="850"/>
                            <mxPoint x="230" y="850"/>
                            <mxPoint x="230" y="1405"/>
                        </Array>
                    </mxGeometry>
                </mxCell>
                <mxCell id="flow-ai-pipeline" value="AI 파이프라인" style="edgeStyle=orthogonalEdgeStyle;rounded=0;orthogonalLoop=1;jettySize=auto;html=1;strokeWidth=2;strokeColor=#d32f2f;fontColor=#d32f2f;" parent="1" source="runpod-whisperx" target="runpod-qwen3" edge="1">
                    <mxGeometry relative="1" as="geometry">
                        <Array as="points">
                            <mxPoint x="510" y="1470"/>
                            <mxPoint x="830" y="1470"/>
                        </Array>
                    </mxGeometry>
                </mxCell>
                <mxCell id="flow-external-apis" value="외부 연동" style="edgeStyle=orthogonalEdgeStyle;rounded=0;orthogonalLoop=1;jettySize=auto;html=1;strokeWidth=2;strokeColor=#388e3c;fontColor=#388e3c;" parent="1" source="notion-service-2a" target="notion-api" edge="1">
                    <mxGeometry relative="1" as="geometry">
                        <Array as="points">
                            <mxPoint x="365" y="1070"/>
                            <mxPoint x="1180" y="1070"/>
                            <mxPoint x="1180" y="1300"/>
                            <mxPoint x="1250" y="1300"/>
                            <mxPoint x="1250" y="1410"/>
                        </Array>
                    </mxGeometry>
                </mxCell>
                <mxCell id="flow-database" value="데이터 저장" style="edgeStyle=orthogonalEdgeStyle;rounded=0;orthogonalLoop=1;jettySize=auto;html=1;strokeWidth=2;strokeColor=#616161;fontColor=#616161;" parent="1" source="express-api-2a" target="rds-primary" edge="1">
                    <mxGeometry relative="1" as="geometry">
                        <Array as="points">
                            <mxPoint x="445" y="920"/>
                            <mxPoint x="445" y="1125"/>
                        </Array>
                    </mxGeometry>
                </mxCell>
                <mxCell id="flow-cache" value="캐시" style="edgeStyle=orthogonalEdgeStyle;rounded=0;orthogonalLoop=1;jettySize=auto;html=1;strokeWidth=2;strokeColor=#616161;fontColor=#616161;" parent="1" source="express-api-2a" target="redis-2a" edge="1">
                    <mxGeometry x="0.3878" relative="1" as="geometry">
                        <Array as="points">
                            <mxPoint x="615" y="920"/>
                            <mxPoint x="615" y="1115"/>
                        </Array>
                        <mxPoint as="offset"/>
                    </mxGeometry>
                </mxCell>
                <mxCell id="flow-replication" value="Multi-AZ 복제" style="edgeStyle=orthogonalEdgeStyle;rounded=0;orthogonalLoop=1;jettySize=auto;html=1;strokeWidth=2;strokeColor=#616161;strokeDashArray=5 5;fontColor=#616161;" parent="1" source="rds-primary" target="rds-standby" edge="1">
                    <mxGeometry relative="1" as="geometry">
                        <Array as="points">
                            <mxPoint x="370" y="1200"/>
                            <mxPoint x="1465" y="1200"/>
                        </Array>
                        <mxPoint as="offset"/>
                    </mxGeometry>
                </mxCell>
            </root>
        </mxGraphModel>
    </diagram>
</mxfile>